<mxfile host="app.diagrams.net" modified="2023-09-16T19:18:19.592Z" agent="Mozilla/5.0 (Windows NT 10.0; Win64; x64) AppleWebKit/537.36 (KHTML, like Gecko) Chrome/116.0.0.0 Safari/537.36 Edg/116.0.1938.76" etag="5K8Xduh4saYLv-fkxJyI" version="21.7.5" type="github">
  <diagram name="Page-1" id="yl21vXkyTCCFEKCny2P4">
    <mxGraphModel dx="903" dy="546" grid="1" gridSize="10" guides="1" tooltips="1" connect="1" arrows="1" fold="1" page="1" pageScale="1" pageWidth="850" pageHeight="1100" math="0" shadow="0">
      <root>
        <mxCell id="0" />
        <mxCell id="1" parent="0" />
        <mxCell id="gVlSr6f9WcLV7gRag2G1-4" value="" style="shape=partialRectangle;whiteSpace=wrap;html=1;bottom=1;right=1;left=1;top=0;fillColor=none;routingCenterX=-0.5;rotation=-90;" vertex="1" parent="1">
          <mxGeometry x="10" y="216.25" width="247.5" height="55" as="geometry" />
        </mxCell>
        <mxCell id="gVlSr6f9WcLV7gRag2G1-6" value="" style="endArrow=classic;html=1;rounded=0;exitX=0.5;exitY=1;exitDx=0;exitDy=0;entryX=0;entryY=0.484;entryDx=0;entryDy=0;entryPerimeter=0;" edge="1" parent="1" source="gVlSr6f9WcLV7gRag2G1-4" target="gVlSr6f9WcLV7gRag2G1-7">
          <mxGeometry width="50" height="50" relative="1" as="geometry">
            <mxPoint x="390" y="320" as="sourcePoint" />
            <mxPoint x="290" y="247" as="targetPoint" />
          </mxGeometry>
        </mxCell>
        <mxCell id="gVlSr6f9WcLV7gRag2G1-7" value="" style="shape=ext;double=1;whiteSpace=wrap;html=1;aspect=fixed;" vertex="1" parent="1">
          <mxGeometry x="330" y="205" width="80" height="80" as="geometry" />
        </mxCell>
        <mxCell id="gVlSr6f9WcLV7gRag2G1-8" value="" style="endArrow=classic;html=1;rounded=0;exitX=0.49;exitY=1.176;exitDx=0;exitDy=0;exitPerimeter=0;entryX=0.5;entryY=1;entryDx=0;entryDy=0;" edge="1" parent="1" target="gVlSr6f9WcLV7gRag2G1-9">
          <mxGeometry width="50" height="50" relative="1" as="geometry">
            <mxPoint x="410" y="243.27" as="sourcePoint" />
            <mxPoint x="531.9999999999999" y="243.27" as="targetPoint" />
          </mxGeometry>
        </mxCell>
        <mxCell id="gVlSr6f9WcLV7gRag2G1-9" value="" style="shape=partialRectangle;whiteSpace=wrap;html=1;bottom=1;right=1;left=1;top=0;fillColor=none;routingCenterX=-0.5;rotation=90;" vertex="1" parent="1">
          <mxGeometry x="480" y="216.25" width="247.5" height="55" as="geometry" />
        </mxCell>
      </root>
    </mxGraphModel>
  </diagram>
</mxfile>
